<svg width="210" height="70" viewBox="0 0 210 70" fill="none" xmlns="http://www.w3.org/2000/svg">
<path d="M29.3636 0C29.4416 0.522654 29.4956 1.05125 29.6156 1.56796C29.6816 1.84711 29.6096 1.88868 29.3636 1.94213C28.2899 2.19158 27.2221 2.44697 26.1723 2.76769C24.2707 3.3438 22.4651 4.1456 20.7315 5.08994C19.2018 5.92737 17.7681 6.91923 16.4424 8.04174C14.8288 9.40183 13.4011 10.9282 12.1354 12.609C10.3238 15.0025 8.89007 17.598 7.93628 20.437C7.3424 22.2069 6.9225 24.0183 6.66455 25.8773C6.41861 27.6888 6.41861 29.4943 6.50259 31.2939C6.60457 33.4558 7.04247 35.588 7.68433 37.6727C8.62013 40.7076 10.0658 43.4753 11.9494 46.0351C12.8492 47.2527 13.821 48.4049 14.9248 49.4383C16.8863 51.2795 19.0339 52.8653 21.4393 54.1184C23.7728 55.336 26.2083 56.2506 28.7877 56.7911C29.9755 57.0406 31.1692 57.1831 32.381 57.3078C33.4787 57.4147 34.5705 57.4029 35.6623 57.3791C36.892 57.3553 38.1157 57.2247 39.3275 56.999C39.6454 56.9396 39.7894 56.9693 39.8553 57.3494C40.2213 59.4816 40.6292 61.6078 41.0191 63.7341C41.337 65.4624 41.6609 67.1907 41.9729 68.9191C42.0389 69.2813 42.0209 69.5783 41.493 69.5843C40.8931 69.5961 40.3052 69.8159 39.6934 69.7981C39.5674 69.7921 39.4954 69.8634 39.5134 70C36.922 70 34.3305 70 31.7391 70C31.7511 69.7327 31.5411 69.8099 31.3972 69.7862C30.2214 69.5961 29.0337 69.4714 27.8759 69.2041C24.5827 68.4439 21.4333 67.3036 18.464 65.6822C15.5846 64.1142 12.9812 62.1839 10.6177 59.933C9.58592 58.9471 8.66212 57.8721 7.75032 56.7792C6.39461 55.1519 5.23686 53.3939 4.23508 51.5468C3.04134 49.3552 2.07555 47.0626 1.3797 44.6572C0.833819 42.7745 0.425907 40.868 0.209954 38.9199C0.197957 38.7774 0.269941 38.5695 0 38.5814C0 36.0156 0 33.4499 0 30.8841C0.18596 30.9079 0.209954 30.7891 0.209954 30.6525C0.203956 30.3674 0.27594 30.0942 0.311932 29.815C0.557879 27.7482 1.07377 25.7407 1.70363 23.757C2.44747 21.4288 3.49124 19.2372 4.68498 17.105C5.94471 14.8422 7.49837 12.7872 9.26199 10.8926C10.4017 9.6691 11.6135 8.50501 12.9212 7.44188C14.7808 5.92143 16.7784 4.60292 18.9019 3.48634C21.7933 1.95995 24.8586 0.890887 28.0619 0.213813C28.1879 0.184117 28.3198 0.190056 28.2899 0C28.6438 0 29.0037 0 29.3636 0Z" fill="#234F72"/>
<path d="M170 67.2146C169.983 67.2085 169.956 67.19 169.956 67.1962C169.214 68.1862 168.185 67.9771 167.211 67.9894C167.028 67.9894 166.845 67.9894 166.663 67.9894C166.009 67.9894 166.037 67.9894 166.004 67.2761C165.982 66.8026 166.092 66.6181 166.552 66.6489C167.177 66.6919 167.808 66.6612 168.439 66.655C168.594 66.655 168.76 66.6304 168.771 66.4152C168.788 66.1385 168.578 66.2307 168.445 66.2184C167.969 66.1631 167.493 66.2984 167.017 66.12C166.336 65.8618 165.932 65.2099 166.009 64.4413C166.087 63.6418 166.663 63.033 167.399 63.0084C168.079 62.99 168.76 63.0085 169.435 63.0023C169.679 62.9962 169.823 63.0699 169.79 63.3713C169.784 63.4082 169.79 63.4451 169.79 63.482C169.806 64.3306 169.806 64.3306 169.065 64.3306C168.6 64.3306 168.135 64.3306 167.67 64.3306C167.471 64.3306 167.266 64.3921 167.277 64.6257C167.282 64.8041 167.471 64.8963 167.664 64.884C167.847 64.8717 168.03 64.8963 168.212 64.8779C168.838 64.8102 169.397 64.9332 169.817 65.5051C169.862 65.5666 169.923 65.585 169.994 65.542C170 66.1077 170 66.6612 170 67.2146Z" fill="#F69419"/>
<path d="M59.9998 25.5258C60.0057 35.5723 57.4486 41.6335 52.5247 46.5884C47.6008 51.5432 41.4816 54.0236 34.4882 53.9998C27.3045 53.976 21.0901 51.3945 16.0949 46.172C11.385 41.2469 8.96471 35.3047 9.00039 28.488C9.04202 21.2015 11.7121 14.9321 17.0404 9.92374C22.2617 5.01648 28.5474 2.73832 35.7013 3.02384C48.6236 3.54133 60.0592 14.2481 59.9998 25.5258ZM34.6071 4.04693C22.4995 3.96365 13.4426 13.6889 13.0144 24.5503C12.4971 37.6066 22.8742 46.9929 34.2444 47.088C46.465 47.1951 55.8668 37.5114 56.0571 25.853C56.2474 13.6354 46.1914 3.94581 34.6071 4.04693Z" fill="#F69419"/>
<path d="M80.8959 28.5645C81.7118 28.5645 82.5277 28.5407 83.3436 28.5725C83.872 28.5883 84.0973 28.3504 84.1828 27.8507C84.6957 24.821 85.2241 21.7913 85.7369 18.7616C85.8302 18.2302 86.0555 17.9923 86.615 18.0002C88.1536 18.0319 89.6921 18.0081 91.2307 18.0161C92.0155 18.024 92.0777 18.1271 91.9456 18.8885C90.9898 24.5117 90.034 30.127 89.0783 35.7502C88.713 37.8916 88.3245 40.033 87.9593 42.1824C87.8583 42.7614 87.6096 43.0152 86.988 42.9993C85.4261 42.9596 83.8642 42.9676 82.3023 42.9914C81.7817 42.9993 81.5719 42.8407 81.6729 42.3014C81.9837 40.5803 82.279 38.8592 82.5821 37.1382C82.7297 36.2974 82.8774 35.4647 83.025 34.624C83.1027 34.1957 82.9318 33.9974 82.5121 33.9974C80.7405 33.9974 78.9688 34.0053 77.1971 33.9974C76.8163 33.9974 76.6687 34.1798 76.6143 34.5447C76.3035 36.4085 75.9849 38.2802 75.6585 40.1441C75.5186 40.9372 75.3632 41.7224 75.2389 42.5155C75.1845 42.8803 74.9747 42.9834 74.6639 42.9834C72.9388 42.9834 71.2138 42.9834 69.4887 42.9834C69.0613 42.9834 68.9447 42.7931 69.0225 42.341C69.4498 39.9696 69.8384 37.5982 70.2424 35.2267C70.9729 30.9201 71.7033 26.6135 72.4415 22.3068C72.6591 21.0458 72.9233 19.8006 73.1331 18.5395C73.203 18.1509 73.405 18.0161 73.7469 18.0161C75.4487 18.0161 77.1505 18.0161 78.8522 18.0161C79.3417 18.0161 79.4039 18.2461 79.3262 18.7061C78.86 21.3154 78.4171 23.9248 77.9741 26.5342C77.9275 26.7879 77.9275 27.0497 77.8809 27.3114C77.6711 28.5725 77.6711 28.5725 78.9299 28.5725C79.5904 28.5645 80.2431 28.5645 80.8959 28.5645Z" fill="white"/>
<path d="M182.489 25.0085C183.874 24.969 185.205 25.1506 186.348 26.035C186.622 26.2482 186.763 26.1929 186.817 25.8534C186.88 25.4822 187.154 25.4349 187.451 25.4349C188.766 25.4349 190.081 25.4428 191.396 25.427C191.968 25.4191 192.054 25.727 191.975 26.2087C191.506 28.8776 191.06 31.5545 190.582 34.2155C190.042 37.2713 189.518 40.3351 188.907 43.383C188.25 46.7073 186.481 49.3052 183.546 50.9871C181.855 51.9583 179.976 52.1558 178.043 51.8952C176.971 51.753 175.938 51.5556 174.975 51.0029C173.05 49.9132 172.423 47.118 173.582 45.0886C174.184 44.0305 175.03 43.1856 176.032 42.5065C176.478 42.2065 176.572 42.0486 176.024 41.7722C174.67 41.101 174.098 39.9087 173.997 38.4558C173.903 37.1766 174.051 35.9132 174.278 34.6498C174.49 33.489 174.662 32.3204 174.905 31.1675C175.656 27.5905 178.505 24.8268 182.489 25.0085ZM182.113 37.374C183.585 37.374 184.164 36.9081 184.422 35.4947C184.673 34.1286 184.861 32.7547 185.166 31.3965C185.33 30.6701 184.978 30.3621 184.438 30.1726C182.732 29.5646 180.97 30.599 180.618 32.4151C180.446 33.2916 180.313 34.176 180.164 35.0604C179.898 36.6317 180.524 37.374 182.113 37.374ZM180.321 46.889C181.08 46.9205 181.636 46.581 182.043 45.973C182.896 44.7017 183.076 43.2172 183.319 41.7485C183.42 41.1484 183.162 41.2668 182.841 41.4248C181.785 41.9538 180.806 42.5934 179.93 43.383C179.46 43.8094 179.1 44.3464 178.951 44.9939C178.701 46.1467 179.483 47.0548 180.321 46.889Z" fill="white"/>
<path d="M131.287 24.8755C131.952 24.8523 133.013 24.9757 134.002 25.4923C134.366 25.6851 134.382 25.3767 134.422 25.153C134.651 23.9039 134.881 22.6624 135.11 21.4133C135.395 19.8248 135.688 18.2441 135.957 16.6557C136.036 16.1699 136.29 15.9925 136.773 16.0002C138.316 16.0157 139.86 16.0157 141.403 16.0002C141.886 16.0002 142.076 16.1236 141.973 16.648C141.545 18.9149 141.158 21.1819 140.746 23.4489C140.018 27.4817 139.274 31.5068 138.546 35.5396C138.308 36.8813 138.704 37.2514 140.065 36.9661C140.635 36.8504 140.849 36.9969 140.809 37.5753C140.754 38.4235 140.857 39.2794 140.691 40.1276C140.611 40.5594 140.445 40.8292 140.081 41.0683C138.276 42.248 135.474 42.2558 133.686 41.1145C133.226 40.8215 133.044 40.3897 132.839 39.9579C132.672 39.6109 132.53 39.6803 132.324 39.8885C130.147 42.1324 126.665 42.6644 123.926 41.1145C122.58 40.3512 122.09 39.0557 122.011 37.6061C121.923 35.9714 122.398 34.4061 122.636 32.8176C122.826 31.5608 123.063 30.3116 123.594 29.1473C124.987 26.1015 127.535 24.8677 131.287 24.8755ZM130.306 36.9584C131.723 36.9584 132.34 36.5034 132.609 35.1772C132.886 33.8046 133.139 32.4321 133.385 31.0519C133.448 30.7049 133.401 30.3579 133.052 30.1343C131.833 29.34 129.775 29.8567 129.134 31.1521C128.541 32.3473 128.422 33.6736 128.311 34.969C128.177 36.4572 128.754 36.9584 130.306 36.9584Z" fill="white"/>
<path d="M162.358 26.8237C164.272 25.0379 166.573 24.7236 169.033 25.1988C170.852 25.5514 171.595 26.5171 171.706 28.4945C171.817 30.4642 171.216 32.3497 170.939 34.2734C170.868 34.7716 170.765 35.2698 170.662 35.7603C170.441 36.8256 170.994 37.3621 172.078 37.1245C172.995 36.9253 173.019 36.9253 172.995 37.845C172.971 38.6881 172.9 39.5388 172.853 40.3819C172.845 40.5735 172.781 40.7344 172.639 40.8724C171.231 42.3286 166.977 42.3823 165.474 40.9874C164.549 40.129 164.383 39.0636 164.422 37.914C164.486 35.9136 165.102 33.9898 165.363 32.0201C165.458 31.315 165.585 30.6252 164.881 30.1653C164.288 29.7744 162.975 29.9967 162.334 30.4719C161.591 31.0237 161.638 31.8515 161.504 32.5873C160.982 35.3311 160.515 38.0903 160.033 40.8417C159.946 41.3246 159.756 41.6082 159.155 41.5929C157.661 41.5545 156.166 41.5775 154.671 41.5852C154.141 41.5852 153.912 41.4856 154.031 40.8647C154.766 36.9942 155.462 33.1161 156.158 29.2379C156.332 28.2722 156.482 27.2989 156.632 26.3255C156.727 25.7353 156.957 25.3981 157.684 25.4364C158.894 25.4977 160.104 25.4518 161.314 25.4518C162.35 25.4518 162.35 25.4594 162.216 26.4405C162.192 26.5554 162.184 26.678 162.358 26.8237Z" fill="white"/>
<path d="M103.444 25.0126C104.69 24.9438 106.289 25.1425 107.773 25.9681C109.211 26.7784 110.072 27.9633 109.995 29.6221C109.857 32.5193 109.495 35.4012 108.327 38.0996C107.489 40.0412 105.79 41.0121 103.829 41.5013C101.053 42.1893 98.2546 42.2198 95.5405 41.249C94.1411 40.7445 93.1032 39.7278 93.0263 38.1913C92.8725 35.126 93.3953 32.1141 94.5486 29.2781C95.6097 26.679 97.9009 25.6088 100.561 25.1578C101.384 25.0126 102.207 25.0355 103.444 25.0126ZM102.145 29.7062C101.246 29.6985 100.346 30.2642 99.9231 31.0669C99.2003 32.4428 99.1234 33.964 98.9696 35.447C98.8466 36.6548 99.9846 37.4192 101.199 37.1746C102.522 36.9071 103.198 36.0127 103.475 34.8049C103.698 33.8494 103.798 32.8709 103.975 31.9077C104.19 30.6999 103.383 29.7138 102.145 29.7062Z" fill="white"/>
<path d="M195.149 36.5059C195.726 36.5059 196.302 36.5135 196.879 36.5059C197.479 36.4983 198.095 36.4298 198.384 37.1223C198.448 37.2669 198.656 37.2897 198.808 37.3506C199.832 37.7387 200.873 37.6778 201.914 37.4647C202.394 37.3658 202.666 37.0919 202.65 36.5972C202.634 36.1178 202.258 36.0189 201.866 35.958C200.305 35.7297 198.744 35.5243 197.191 35.2731C193.268 34.6491 192.548 31.8792 193.749 28.8429C194.389 27.2372 195.822 26.3621 197.447 25.8294C200.433 24.8401 203.507 24.7716 206.565 25.4337C208.246 25.799 209.631 26.6056 209.951 28.4472C210.103 29.3299 209.895 30.1137 209.438 30.8671C209.294 31.0954 209.086 31.1562 208.838 31.1562C207.277 31.1562 205.716 31.1639 204.155 31.1562C203.923 31.1562 203.611 31.1791 203.659 30.829C203.803 29.8474 203.114 29.6495 202.338 29.4821C201.473 29.3071 200.681 29.4897 199.92 29.8474C199.512 30.0376 199.336 30.3724 199.368 30.7986C199.4 31.2476 199.712 31.4759 200.129 31.6128C201.265 31.9857 202.474 32.039 203.643 32.2521C204.419 32.389 205.196 32.5184 205.94 32.7695C208.862 33.736 209.759 37.2973 207.669 39.4966C206.228 41.0109 204.379 41.5816 202.346 41.8404C200.913 42.023 199.472 42.0306 198.039 41.9545C196.486 41.8708 194.965 41.6197 193.613 40.7598C192.14 39.8238 191.924 38.2333 192.02 36.9625C192.052 36.5896 192.364 36.5059 192.7 36.5059C193.516 36.5059 194.333 36.5135 195.149 36.5059Z" fill="white"/>
<path d="M119.027 16.0181C119.804 16.0181 120.581 16.0258 121.358 16.0181C121.868 16.0104 122.079 16.126 121.974 16.7116C120.784 22.9299 119.634 29.1559 118.477 35.382C118.445 35.5592 118.437 35.7518 118.437 35.929C118.42 36.9462 118.809 37.2467 119.861 37.0232C120.072 36.977 120.282 36.9153 120.501 36.8845C120.784 36.8383 120.921 36.9539 120.857 37.239C120.67 38.0634 120.8 38.8956 120.768 39.7201C120.751 40.3443 120.525 40.822 119.926 41.1379C117.74 42.3015 115.507 42.2475 113.329 41.215C112.342 40.7449 112.115 39.7278 112.026 38.7261C111.897 37.2621 112.277 35.8443 112.528 34.4265C113.151 30.8897 113.839 27.3683 114.503 23.8315C114.948 21.4582 115.393 19.0849 115.838 16.7116C115.936 16.2031 116.203 15.9719 116.777 16.0027C117.522 16.0489 118.283 16.0181 119.027 16.0181Z" fill="white"/>
<path d="M148.68 42.9809C148.224 42.9652 147.767 42.9495 147.302 42.8945C144.447 42.5329 143.721 40.505 144.088 38.2806C144.7 34.4999 145.434 30.7427 146.095 26.9777C146.209 26.3018 146.454 25.9638 147.261 26.0031C148.721 26.0738 150.198 26.0345 151.666 26.0188C152.318 26.0109 152.457 26.2939 152.343 26.8598C151.723 30.0668 151.127 33.2737 150.524 36.4806C150.279 37.7932 150.858 38.2884 152.237 37.9111C152.783 37.7618 153.101 37.8797 152.971 38.4378C152.775 39.2552 152.832 40.0805 152.865 40.898C152.889 41.5111 152.612 41.8569 152.114 42.1399C151.038 42.7137 149.928 43.091 148.68 42.9809Z" fill="white"/>
<path d="M149.15 23C146.597 23 145.748 21.8867 146.062 19.4745C146.251 17.9901 146.769 16.8284 148.231 16.3121C149.252 15.949 150.305 15.8845 151.342 16.2153C152.166 16.4734 152.756 16.9817 152.905 17.9498C153.156 19.5068 152.944 20.9267 151.852 22.0964C151.043 22.9516 149.943 22.9032 149.15 23Z" fill="white"/>
<path d="M111.007 65.5344C111.007 64.8668 111.001 64.1992 111.013 63.5376C111.013 63.4053 110.96 63.2309 111.123 63.1527C111.263 63.0865 111.397 63.1226 111.502 63.2429C111.654 63.4233 111.77 63.4053 111.98 63.285C112.598 62.9241 113.233 62.9181 113.822 63.3692C113.95 63.4715 114.014 63.5075 114.166 63.3873C114.76 62.9001 115.43 62.8941 116.06 63.2489C116.689 63.6038 117.027 64.1812 116.998 64.969C116.969 65.8171 116.975 66.6651 116.998 67.5071C117.01 67.892 116.876 68.0003 116.515 67.9943C115.594 67.9642 115.745 68.0484 115.734 67.1763C115.728 66.4546 115.716 65.7329 115.739 65.0172C115.751 64.6082 115.541 64.3556 115.209 64.3556C114.883 64.3556 114.667 64.6082 114.679 65.0111C114.696 65.8411 114.667 66.6711 114.69 67.4951C114.702 67.868 114.591 67.9943 114.218 67.9943C113.425 67.9883 113.425 68.0063 113.425 67.1884C113.425 66.4847 113.425 65.781 113.425 65.0833C113.425 64.6924 113.28 64.3676 112.883 64.3736C112.487 64.3796 112.365 64.6924 112.371 65.0953C112.388 65.9073 112.365 66.7192 112.382 67.5252C112.388 67.868 112.289 68.0304 111.939 67.9943C111.782 67.9762 111.625 67.9762 111.467 67.9943C111.088 68.0364 110.989 67.8439 111.001 67.4831C111.018 66.8335 111.007 66.184 111.007 65.5344Z" fill="#F69419"/>
<path d="M117.011 66.5209C117.011 65.5553 117.005 64.5959 117.017 63.6303C117.017 63.4818 116.933 63.2775 117.142 63.197C117.316 63.1289 117.459 63.2218 117.567 63.358C117.794 63.6613 117.997 63.6056 118.29 63.4137C119.546 62.5719 121.054 63.098 121.646 64.2431C122.232 65.3882 122.172 67.0161 120.844 67.9074C120.276 68.2911 119.552 68.5016 118.865 68.1302C118.434 67.895 118.392 68.0807 118.404 68.4583C118.416 68.8296 118.398 69.201 118.41 69.5724C118.416 69.8509 118.314 69.9562 118.039 69.9747C117.017 70.0428 117.017 70.049 117.017 68.972C117.011 68.155 117.011 67.3379 117.011 66.5209ZM118.41 65.6296C118.41 66.4219 118.775 66.8428 119.469 66.8489C120.145 66.8551 120.653 66.3414 120.671 65.6481C120.683 64.9363 120.162 64.3916 119.463 64.3978C118.775 64.404 118.41 64.8373 118.41 65.6296Z" fill="#F69419"/>
<path d="M155.001 62.0133C154.831 63.066 154.674 64.0577 154.516 65.0439C154.458 65.3874 154.592 65.5038 154.966 65.5093C156.086 65.5204 156.086 65.5315 156.086 64.4733C156.086 63.9746 156.098 63.476 156.08 62.9774C156.069 62.6948 156.191 62.6117 156.483 62.6061C157.347 62.5784 157.347 62.5674 157.347 63.3818C157.347 63.9635 157.341 64.5453 157.353 65.127C157.353 65.2822 157.306 65.5038 157.575 65.4927C158.018 65.465 158.018 65.7475 157.966 66.0079C157.907 66.3016 158.252 66.8058 157.551 66.8058C157.353 66.8058 157.347 66.9553 157.347 67.0883C157.341 67.2712 157.335 67.454 157.347 67.6368C157.365 67.8861 157.265 68.0136 156.985 67.9914C156.863 67.9803 156.74 67.9803 156.617 67.9914C156.221 68.0357 156.057 67.9138 156.075 67.5038C156.098 66.7393 156.203 66.8002 155.31 66.7947C154.645 66.7891 153.979 66.7891 153.314 66.7947C153.075 66.7947 152.964 66.7891 153.01 66.4733C153.226 65.1436 153.384 63.8029 153.571 62.4676C153.612 62.1518 153.758 61.9579 154.149 62.0078C154.405 62.0355 154.668 62.0133 155.001 62.0133Z" fill="#F69419"/>
<path d="M140.981 65.569C140.981 66.2142 140.987 66.8593 140.975 67.5044C140.975 67.6439 141.053 67.8357 140.813 67.888C140.626 67.9287 140.47 67.8357 140.404 67.6962C140.181 67.2545 139.995 67.423 139.67 67.6265C138.954 68.074 138.13 68.1205 137.372 67.7601C136.578 67.3824 136.079 66.7198 136.013 65.8364C135.911 64.581 136.422 63.6802 137.499 63.2094C138.287 62.8607 139.074 62.9537 139.766 63.4419C140.043 63.6395 140.205 63.6104 140.398 63.3954C140.524 63.2617 140.668 63.1397 140.867 63.2211C141.065 63.3024 140.981 63.4942 140.987 63.6337C140.987 64.2788 140.981 64.9239 140.981 65.569ZM139.574 65.4993C139.568 64.86 139.081 64.366 138.461 64.3427C137.727 64.3137 137.324 64.953 137.33 65.4819C137.336 66.0282 137.727 66.6733 138.491 66.6501C139.135 66.6268 139.574 66.1793 139.574 65.4993Z" fill="#F69419"/>
<path d="M75.0134 64.5094C75.0134 63.5148 75.0244 62.5202 75.0078 61.5256C75.0023 61.1503 75.0908 60.9939 75.4505 61.0002C76.2085 61.0064 76.2085 60.9877 76.2085 61.8384C76.2085 61.8947 76.2085 61.951 76.2085 62.0073C76.214 62.2888 76.131 62.6265 76.2417 62.8392C76.3966 63.1395 76.6733 62.8079 76.9001 62.8017C77.9735 62.7829 78.9363 63.79 78.9861 65.0848C79.0193 65.9105 78.9805 66.7362 78.9971 67.5619C79.0026 67.9247 78.8588 67.9998 78.5766 67.9935C77.4866 67.9685 77.719 68.1123 77.6969 67.0365C77.6858 66.3797 77.7024 65.7229 77.6858 65.0661C77.6747 64.5844 77.3649 64.2028 76.9997 64.1903C76.5903 64.1716 76.2085 64.5719 76.203 65.0723C76.1919 65.898 76.1864 66.7237 76.203 67.5494C76.2085 67.8934 76.1034 68.006 75.8046 67.9998C74.8308 67.981 75.0189 68.0561 75.0078 67.099C75.0023 66.2295 75.0134 65.3663 75.0134 64.5094Z" fill="#F69419"/>
<path d="M48 63.2504C48 63.0513 48 62.8521 48 62.653C48 62.0002 48 62.0002 48.6634 62.0002C49.3556 62.0002 49.3556 62.0002 49.3556 62.6696C49.3556 63.0347 49.3556 63.3998 49.3556 63.7649C49.3556 64.4176 49.7248 64.8602 50.3017 64.8878C51.0747 64.9266 51.5939 64.5338 51.6342 63.8368C51.6631 63.3555 51.6573 62.8742 51.64 62.3985C51.6285 62.0943 51.7496 61.9947 52.0611 62.0002C53.1975 62.0168 52.9841 61.9172 52.9841 62.8466C52.9841 63.3389 53.0129 63.8257 52.9091 64.3236C52.7303 65.1589 52.2053 65.6899 51.4381 66.0163C51.19 66.1214 51.1035 66.2376 51.1151 66.4865C51.1324 66.8682 51.1093 67.2499 51.1208 67.6316C51.1324 67.8916 51.017 67.9691 50.7574 67.9801C49.7652 68.0354 49.7652 68.041 49.7652 67.0784C49.7652 66.8627 49.7479 66.647 49.771 66.4312C49.794 66.1989 49.6902 66.0716 49.471 65.9831C48.4096 65.5406 47.9827 64.7219 48.0115 63.6542C48 63.5159 48 63.3832 48 63.2504Z" fill="#F69419"/>
<path d="M102.501 67.9831C102.203 67.9831 101.905 67.9954 101.608 67.977C101.42 67.9647 101.144 68.0936 101.073 67.8481C100.968 67.5045 100.984 67.1178 101.073 66.7619C101.111 66.6085 101.304 66.6576 101.431 66.6576C102.076 66.6514 102.722 66.6576 103.367 66.6514C103.544 66.6514 103.781 66.676 103.775 66.3876C103.764 66.1053 103.527 66.2341 103.384 66.2157C102.942 66.1605 102.496 66.2894 102.06 66.1237C101.332 65.8537 100.946 65.2154 101.034 64.3624C101.1 63.6812 101.679 63.0553 102.341 63.0185C103.02 62.9816 103.698 63.0123 104.377 63.0062C104.603 63.0062 104.719 63.0921 104.702 63.356C104.697 63.5033 104.691 63.6506 104.708 63.7978C104.752 64.1967 104.63 64.3686 104.244 64.3379C103.781 64.3072 103.318 64.3256 102.854 64.3317C102.722 64.3317 102.584 64.3256 102.463 64.3747C102.369 64.4115 102.225 64.4545 102.242 64.6263C102.258 64.8043 102.369 64.8718 102.518 64.8718C102.865 64.8779 103.213 64.8718 103.56 64.8779C104.465 64.8902 104.994 65.4241 105 66.3385C105.005 67.2774 104.41 67.9463 103.544 67.9647C103.196 67.9893 102.849 67.9831 102.501 67.9831Z" fill="#F69419"/>
<path d="M85 65.465C84.9818 67.0453 83.8639 68.0286 82.5031 67.9994C80.9478 67.9642 80 66.9341 80 65.5821C79.994 64.0018 80.9356 63.0419 82.497 63.0009C83.8882 62.9658 84.9878 63.9491 85 65.465ZM82.4848 66.659C83.2078 66.7117 83.6148 66.144 83.6756 65.4884C83.7303 64.868 83.1288 64.3354 82.4666 64.3412C81.7801 64.3471 81.3973 64.7451 81.3973 65.4475C81.3913 66.2318 81.7801 66.659 82.4848 66.659Z" fill="#F69419"/>
<path d="M92.0017 65.4909C91.9527 63.97 92.9492 63.0925 94.1635 63.0048C94.8333 62.958 95.4541 63.2563 95.906 63.853C96.0531 64.0519 96.0149 64.1806 95.8788 64.3502C95.3887 64.9703 94.9041 65.6021 94.4195 66.228C94.3269 66.345 94.169 66.4796 94.2724 66.6141C94.3541 66.7194 94.5447 66.6843 94.6808 66.5849C94.7734 66.5147 94.8986 66.4737 94.9531 66.3801C95.1872 65.9706 95.3887 66.0584 95.6283 66.3801C95.8516 66.6785 96.2328 66.8832 95.7536 67.3336C95.111 67.942 94.1962 68.1877 93.4338 67.8426C92.4755 67.4155 92.0017 66.6375 92.0017 65.4909ZM94.3596 64.4321C93.6734 64.28 93.02 64.9996 93.1834 65.6664C93.2269 65.8361 93.3086 65.9472 93.4393 65.7659C93.7551 65.3388 94.0492 64.8884 94.3596 64.4321Z" fill="#F69419"/>
<path d="M123.001 65.5236C122.97 64.0151 124.116 63.0483 125.486 63.0017C126.856 62.9493 128.086 64.1316 127.995 65.5061C127.892 67.0263 127.092 67.9407 125.48 67.9989C124.104 68.0397 122.97 66.9214 123.001 65.5236ZM126.601 65.5178C126.601 64.749 126.219 64.3704 125.498 64.3471C124.728 64.318 124.316 64.9819 124.334 65.5178C124.346 66.0711 124.746 66.7059 125.522 66.6652C126.219 66.6244 126.601 66.2516 126.601 65.5178Z" fill="#F69419"/>
<path d="M54.0114 65.4793C53.895 64.0174 55.1451 62.9942 56.4995 63C57.9273 63 59.0182 64.0993 58.9998 65.5436C58.9814 66.9002 57.8722 68.0287 56.4566 67.9994C55.0532 67.9702 53.8705 66.9002 54.0114 65.4793ZM56.4995 66.6546C57.1429 66.6546 57.6577 66.1517 57.6516 65.5377C57.6454 64.8244 57.1552 64.3391 56.4504 64.3391C55.8376 64.3391 55.3535 64.8302 55.329 65.4325C55.3045 66.0055 55.8928 66.8008 56.4995 66.6546Z" fill="#F69419"/>
<path d="M141.006 65.5098C141.006 64.8408 141.001 64.1779 141.012 63.509C141.012 63.3764 140.951 63.2016 141.122 63.1354C141.255 63.0811 141.393 63.1173 141.476 63.2499C141.647 63.5271 141.823 63.4728 142.044 63.3161C143.314 62.4001 145.126 63.6054 144.993 65.2567C144.932 66.01 144.971 66.7693 144.988 67.5287C144.999 67.8782 144.894 67.9987 144.568 67.9987C143.789 68.0047 143.789 68.0228 143.789 67.161C143.789 66.5283 143.778 65.8955 143.789 65.2687C143.8 64.7444 143.519 64.4491 143.099 64.3768C142.707 64.3105 142.425 64.5516 142.304 64.9855C142.088 65.7629 142.249 66.5584 142.193 67.3418C142.177 67.5528 142.315 67.8842 142.044 67.9505C141.746 68.0228 141.42 67.9927 141.111 67.9445C140.962 67.9204 141.006 67.7034 141.006 67.5648C141.006 66.8838 141.006 66.1968 141.006 65.5098Z" fill="#F69419"/>
<path d="M164.993 65.4812C164.993 66.152 164.998 66.8227 164.987 67.4935C164.987 67.6386 165.065 67.844 164.838 67.8924C164.672 67.9286 164.555 67.8561 164.483 67.6809C164.367 67.3968 164.24 67.415 164.002 67.6023C163.376 68.1039 162.689 68.116 162.008 67.7232C161.332 67.3304 161.017 66.6958 161.006 65.8679C161 65.0521 161.011 64.2363 161 63.4204C160.995 63.1122 161.1 63.0216 161.377 63.0095C162.196 62.9793 162.196 62.9672 162.196 63.8556C162.196 64.4357 162.191 65.0158 162.196 65.596C162.202 66.2366 162.462 66.5871 162.927 66.5992C163.464 66.6112 163.775 66.2607 163.791 65.596C163.802 64.8889 163.824 64.1819 163.786 63.4748C163.758 62.931 164.074 63.0035 164.367 63.0156C164.655 63.0276 165.026 62.8705 164.998 63.4688C164.965 64.1335 164.993 64.8104 164.993 65.4812Z" fill="#F69419"/>
<path d="M62.9911 65.4672C62.9911 66.1414 62.9966 66.8156 62.9856 67.4837C62.9856 67.6294 63.0576 67.8299 62.8637 67.9088C62.6864 67.9756 62.6089 67.842 62.5203 67.6962C62.3873 67.4897 62.2378 67.4472 62.0217 67.6173C60.731 68.6255 58.9197 67.5262 59.0028 65.6676C59.036 64.9388 59.0194 64.21 59.0028 63.4872C58.9972 63.1471 59.0803 63.0074 59.4182 63.0013C60.2048 62.9952 60.2048 62.977 60.2048 63.8334C60.2048 64.4347 60.1937 65.036 60.2103 65.6312C60.227 66.2811 60.5039 66.6091 60.9748 66.6091C61.4844 66.603 61.7891 66.2507 61.8001 65.6191C61.8112 64.9084 61.8223 64.1978 61.7946 63.4933C61.7835 63.1046 61.9109 62.9892 62.2544 63.0013C63.1351 63.0256 62.9856 62.9466 62.9966 63.8273C62.9966 64.374 62.9911 64.9206 62.9911 65.4672Z" fill="#F69419"/>
<path d="M135.229 67.9808C133.552 67.9808 132.613 67.0756 132.607 65.5069C132.607 65.2093 132.607 64.9117 132.6 64.6141C132.6 64.4839 132.607 64.3227 132.419 64.3165C131.81 64.2979 132.05 63.8576 132.031 63.5786C132.011 63.312 131.895 62.9462 132.413 62.9462C132.594 62.9462 132.594 62.7788 132.594 62.6486C132.6 62.4068 132.6 62.165 132.6 61.9231C132.6 61.0551 132.84 60.8877 133.74 61.0613C133.979 61.1109 133.986 61.2473 133.999 61.4209C134.05 61.9107 133.772 62.5432 134.128 62.8656C134.452 63.157 135.093 62.94 135.591 62.9586C135.857 62.9648 135.993 63.0454 135.98 63.312C135.967 63.5166 135.967 63.7212 135.98 63.9258C136.006 64.2297 135.844 64.3103 135.559 64.3041C135.229 64.2917 134.899 64.3289 134.568 64.2979C134.089 64.2483 133.947 64.4529 133.992 64.8745C134.012 65.0605 133.992 65.2465 133.999 65.4325C134.005 66.2634 134.387 66.623 135.274 66.654C135.501 66.6664 135.857 66.5114 135.934 66.8152C136.019 67.15 136.032 67.5406 135.915 67.8568C135.831 68.1234 135.436 67.925 135.229 67.9808Z" fill="#F69419"/>
<path d="M149.279 67.9875C147.62 67.9875 146.626 67.0276 146.613 65.4506C146.613 65.1701 146.613 64.8896 146.606 64.6091C146.606 64.5031 146.619 64.3411 146.49 64.3224C145.638 64.1915 146.187 63.5557 146.045 63.1755C146.032 63.1318 146.064 63.0321 146.09 63.0259C147 62.8451 146.477 62.147 146.606 61.6857C146.665 61.48 146.49 61.1621 146.748 61.0811C147.11 60.9689 147.523 60.9751 147.891 61.0873C148.072 61.1434 147.988 61.3865 148.001 61.5486C148.046 61.9911 147.801 62.5521 148.117 62.8389C148.427 63.1256 149.008 62.9573 149.459 62.9261C150.073 62.8887 149.976 63.2627 149.976 63.6118C149.976 63.9546 150.073 64.3722 149.459 64.285C149.343 64.2663 149.227 64.285 149.111 64.285C147.923 64.2974 148.014 64.1665 148.001 64.8896C147.981 66.2048 148.285 66.61 149.279 66.6474C149.505 66.6536 149.86 66.504 149.937 66.8094C150.021 67.146 150.027 67.5325 149.918 67.8566C149.84 68.1122 149.472 67.9377 149.279 67.9875Z" fill="#F69419"/>
<path d="M87.0043 65.5578C86.9442 64.3085 87.7741 63.135 89.1336 63.0066C89.6578 62.9599 90.1601 63.1642 90.5805 63.5087C91.1811 63.9991 91.05 64.7055 90.3239 65.0091C90.0946 65.1083 90.0891 64.8573 90.0181 64.7697C89.7124 64.4136 89.3575 64.2501 88.9261 64.3902C88.4948 64.5303 88.2873 64.9273 88.2 65.3594C88.1072 65.8439 88.2983 66.2409 88.6859 66.5211C89.0736 66.8014 89.7287 66.7138 90.029 66.2701C90.2201 65.9957 90.313 66.0716 90.4713 66.2467C90.515 66.2993 90.5641 66.346 90.6133 66.3927C91.1592 66.9298 91.1374 67.1575 90.4822 67.5837C89.6851 68.0974 88.8715 68.1616 88.058 67.6304C87.3319 67.1692 86.9551 66.4803 87.0043 65.5578Z" fill="#F69419"/>
<path d="M72.1896 66.6534C72.5303 66.7002 72.7629 66.5188 72.963 66.279C73.1144 66.0976 73.2226 66.0508 73.4227 66.2556C74.169 67.0161 74.1365 67.1857 73.2063 67.7356C71.8598 68.5312 70.1508 67.4139 70.0156 65.9455C69.875 64.3719 70.6916 63.1493 72.1193 63.0089C72.8116 62.9387 73.4335 63.2897 73.904 63.8747C74.0229 64.0268 74.0554 64.214 73.8607 64.3719C73.7471 64.4655 73.639 64.5825 73.5525 64.7054C73.3253 65.0213 73.1631 65.1324 72.8981 64.6878C72.6493 64.2725 72.1085 64.2315 71.7246 64.4831C71.3135 64.758 71.0702 65.4308 71.2378 65.8987C71.4109 66.3609 71.6597 66.7353 72.1896 66.6534Z" fill="#F69419"/>
<path d="M128.006 65.4816C128.006 64.78 128 64.0785 128.011 63.3769C128.011 63.2476 127.956 63.063 128.155 63.0199C128.298 62.9892 128.425 63.0384 128.491 63.1923C128.618 63.4877 128.768 63.4692 129.005 63.3153C129.524 62.9769 130.104 62.9892 130.684 63.0076C130.927 63.0138 131.004 63.1369 130.987 63.383C130.982 63.5123 130.971 63.6415 130.987 63.7708C131.054 64.2508 130.855 64.4046 130.452 64.3369C129.623 64.2015 129.104 64.7616 129.187 65.7401C129.237 66.3247 129.182 66.9217 129.198 67.5125C129.209 67.8633 129.115 67.9987 128.779 67.9987C128 68.0048 128 68.0233 128 67.1433C128 66.5894 128 66.0355 128.006 65.4816Z" fill="#F69419"/>
<path d="M64.0024 65.4905C64.0024 64.7897 63.9968 64.095 64.0079 63.3942C64.0079 63.2651 63.9524 63.0807 64.1355 63.0253C64.2854 62.9823 64.3742 63.0684 64.4519 63.2098C64.5962 63.4803 64.7849 63.4249 64.9957 63.2897C65.5396 62.9454 66.139 63.0008 66.7328 63.0069C66.9215 63.0069 66.9992 63.1114 66.9992 63.3143C66.9936 63.5356 66.9936 63.7569 66.9992 63.9782C67.0103 64.2364 66.9104 64.3471 66.6773 64.3348C66.4775 64.3225 66.2777 64.3225 66.0779 64.3409C65.5452 64.3778 65.2066 64.7712 65.2011 65.3614C65.1955 66.0807 65.1844 66.7938 65.2066 67.513C65.2177 67.8634 65.1234 67.9987 64.7849 67.9987C64.0024 68.0048 64.0024 68.0233 64.0024 67.1503C64.0024 66.5971 64.0024 66.0438 64.0024 65.4905Z" fill="#F69419"/>
<path d="M85.9951 65.5C85.9951 66.1648 85.9825 66.8297 85.9993 67.4884C86.0077 67.8639 85.9403 68.0116 85.6663 67.9993C84.8779 67.9624 85.017 68.1039 85.0086 67.0821C85.0002 65.9001 85.017 64.7243 85.0002 63.5424C84.996 63.1423 85.0676 62.9884 85.3585 63.0007C86.1174 63.0376 85.9782 62.896 85.9909 63.8994C85.9993 64.4289 85.9951 64.9644 85.9951 65.5Z" fill="#F69419"/>
<path d="M99.0048 65.5104C99.0048 64.8254 99.014 64.1466 99.0002 63.4616C98.9956 63.1407 99.0601 62.9679 99.3227 63.0049C99.461 63.0235 99.5992 63.0173 99.7374 63.0049C99.9355 62.9926 100 63.116 100 63.369C99.9954 64.7884 99.9954 66.2077 100 67.627C100 67.9232 99.8986 68.0158 99.7005 67.9972C99.5623 67.9849 99.4241 67.9849 99.2859 67.9972C99.0647 68.0219 99.0002 67.88 99.0002 67.6023C99.0094 66.9112 99.0048 66.2077 99.0048 65.5104Z" fill="#F69419"/>
<path d="M109.014 65.4835C109.014 64.8751 109.041 64.2666 109.005 63.6642C108.968 63.1049 109.137 62.939 109.516 63.0189C109.598 63.0373 109.68 63.0312 109.763 63.025C109.941 63.0127 110 63.1357 110 63.3569C109.995 64.789 109.995 66.2211 110 67.6532C110 67.9236 109.909 68.0096 109.726 67.9974C109.589 67.9912 109.452 67.9851 109.315 67.9974C109.078 68.0219 109.009 67.8744 109.014 67.5794C109.023 66.8787 109.014 66.1842 109.014 65.4835Z" fill="#F69419"/>
<path d="M99.9547 61.0001C100.582 61.0073 101 61.4087 101 62.0179C101 62.5053 100.47 63.0071 99.9547 62.9999C99.3833 62.9928 99 62.5842 99 61.9678C99 61.2868 99.2857 60.993 99.9547 61.0001Z" fill="#F69419"/>
<path d="M108.969 61.0004C109.561 61.0075 110 61.4131 110 61.9539C110 62.4876 109.491 63 108.955 63C108.37 63 107.98 62.5588 108.001 61.9184C108.022 61.3775 108.426 60.9861 108.969 61.0004Z" fill="#F69419"/>
<path d="M86.9999 62.0181C87.0071 62.6416 86.6389 63.0071 86.018 62.9999C85.4261 62.9927 85.0073 62.5843 85.0001 61.9966C84.9929 61.3803 85.3683 61.0077 86.0036 61.0005C86.7111 60.9862 86.9999 61.28 86.9999 62.0181Z" fill="#F69419"/>
<path d="M27.0934 19.0156C28.0933 19.0867 29.3148 18.9029 30.5303 19.1282C32.0093 19.3951 33.1709 20.3321 32.9793 22.1231C32.8475 23.3804 32.7338 24.6555 32.0991 25.806C31.8177 26.316 31.4644 26.7667 30.9854 27.081C30.686 27.2767 30.6381 27.4546 30.7399 27.7749C31.2309 29.2931 31.6979 30.8172 32.1829 32.3414C32.3745 32.9403 32.3506 32.9878 31.7219 32.9878C30.7698 32.9937 29.8178 32.9759 28.8717 32.9937C28.4825 32.9997 28.2849 32.8514 28.1711 32.4956C27.74 31.09 27.279 29.6964 26.8598 28.2849C26.7401 27.8816 26.5425 27.7571 26.1413 27.7571C25.7341 27.7512 25.5605 27.9054 25.5066 28.2908C25.321 29.5837 25.1114 30.8765 24.9138 32.1753C24.7881 32.9937 24.7941 32.9937 23.9438 32.9937C23.1355 32.9937 22.3271 32.9819 21.5188 32.9997C21.1236 33.0056 20.932 32.9403 21.0218 32.46C21.4889 29.9514 21.92 27.4428 22.3691 24.9283C22.6744 23.2025 23.0038 21.4826 23.2852 19.7509C23.375 19.1875 23.6025 18.9681 24.1953 19.0037C25.0815 19.0571 25.9856 19.0156 27.0934 19.0156ZM27.261 25.3197C27.9556 25.4205 28.6202 25.1773 28.9974 24.3589C29.4525 23.3804 28.9795 22.2417 28.0454 22.1291C27.6382 22.0816 27.2251 22.1172 26.8119 22.1172C26.5365 22.1172 26.4467 22.2655 26.4167 22.5145C26.3449 23.0779 26.2551 23.6354 26.1713 24.1929C25.9617 25.4976 25.8958 25.2841 27.261 25.3197Z" fill="white"/>
<path d="M41.3081 19.0059C43.3215 19.0059 45.3349 19.0059 47.3422 19.0059C48.0441 19.0059 48.0626 19.0297 47.9456 19.7006C47.8409 20.3299 47.687 20.9533 47.6193 21.5886C47.5762 21.9864 47.3915 22.0992 47.0159 22.0992C45.7782 22.0933 44.5406 22.1111 43.303 22.0933C42.7981 22.0873 42.5641 22.212 42.4718 22.7523C41.9115 25.9999 41.3019 29.2416 40.7108 32.4893C40.6554 32.8039 40.5138 33.0058 40.132 32.9999C39.2454 32.9821 38.3587 32.988 37.4721 32.9999C36.9857 33.0058 36.9179 32.7505 36.9795 32.3765C37.2443 30.91 37.5213 29.4435 37.7861 27.977C38.1124 26.1959 38.4141 24.4147 38.7589 22.6395C38.8451 22.2001 38.6974 22.0933 38.2971 22.0992C37.078 22.1051 35.8589 22.1051 34.6397 22.0992C33.9563 22.0933 33.9378 22.0636 34.0548 21.4342C34.1656 20.8049 34.3011 20.1815 34.3873 19.5522C34.4427 19.1187 34.6767 19 35.0954 19C37.1704 19.0119 39.2392 19.0059 41.3081 19.0059Z" fill="white"/>
</svg>
