<svg width="132" height="44" viewBox="0 0 132 44" fill="none" xmlns="http://www.w3.org/2000/svg">
<path d="M18.1775 0C18.2258 0.328525 18.2592 0.660784 18.3334 0.985576C18.3743 1.16104 18.3297 1.18717 18.1775 1.22077C17.5128 1.37757 16.8518 1.5381 16.2019 1.73969C15.0247 2.10182 13.907 2.6058 12.8338 3.19939C11.8868 3.72578 10.9993 4.34923 10.1786 5.05481C9.17972 5.90972 8.29591 6.86917 7.51237 7.92567C6.3909 9.43017 5.50338 11.0616 4.91293 12.8461C4.5453 13.9586 4.28535 15.0972 4.12568 16.2657C3.97342 17.4044 3.97342 18.5393 4.02541 19.6705C4.08854 21.0294 4.35962 22.3696 4.75697 23.68C5.33627 25.5876 6.23122 27.3273 7.39725 28.9364C7.95427 29.7017 8.55586 30.4259 9.23914 31.0755C10.4534 32.2328 11.7829 33.2296 13.272 34.0173C14.7165 34.7826 16.2242 35.3575 17.821 35.6973C18.5563 35.8541 19.2952 35.9437 20.0454 36.0221C20.7249 36.0893 21.4008 36.0818 22.0766 36.0669C22.8379 36.0519 23.5954 35.9698 24.3456 35.8279C24.5424 35.7906 24.6315 35.8093 24.6724 36.0482C24.8989 37.3884 25.1514 38.7249 25.3928 40.0614C25.5896 41.1478 25.7901 42.2342 25.9832 43.3205C26.0241 43.5483 26.0129 43.7349 25.6861 43.7387C25.3148 43.7461 24.9509 43.8843 24.5721 43.8731C24.4941 43.8693 24.4495 43.9141 24.4607 44C22.8565 44 21.2522 44 19.648 44C19.6554 43.832 19.5255 43.8805 19.4363 43.8656C18.7085 43.7461 17.9732 43.6677 17.2565 43.4997C15.2178 43.0219 13.2683 42.3051 11.4301 41.2859C9.64762 40.3004 8.03597 39.0871 6.57286 37.6722C5.93414 37.0524 5.36226 36.3767 4.79781 35.6898C3.95857 34.6669 3.24187 33.5619 2.62172 32.4008C1.88273 31.0232 1.28486 29.5822 0.8541 28.0703C0.516174 26.8868 0.263657 25.6884 0.129972 24.4639C0.122545 24.3743 0.167107 24.2437 0 24.2511C0 22.6384 0 21.0256 0 19.4129C0.115118 19.4278 0.129972 19.3531 0.129972 19.2673C0.126258 19.0881 0.17082 18.9163 0.193101 18.7409C0.345354 17.4417 0.664713 16.1799 1.05463 14.933C1.5151 13.4695 2.16124 12.092 2.90023 10.7517C3.68006 9.32937 4.64185 8.03767 5.73361 6.84677C6.43917 6.07772 7.1893 5.346 7.99883 4.67775C9.15001 3.72204 10.3866 2.89326 11.7012 2.19141C13.4911 1.23197 15.3887 0.559986 17.3717 0.134397C17.4496 0.115731 17.5313 0.119464 17.5128 0C17.7319 0 17.9547 0 18.1775 0Z" fill="#F69419"/>
<path d="M107 42.5288C106.988 42.5251 106.967 42.514 106.967 42.5177C106.411 43.1117 105.638 42.9863 104.908 42.9937C104.771 42.9937 104.634 42.9937 104.497 42.9937C104.007 42.9937 104.028 42.9937 104.003 42.5657C103.986 42.2816 104.069 42.1709 104.414 42.1893C104.883 42.2152 105.356 42.1967 105.829 42.193C105.946 42.193 106.07 42.1783 106.078 42.0491C106.091 41.8831 105.933 41.9384 105.834 41.9311C105.477 41.8978 105.12 41.979 104.763 41.872C104.252 41.7171 103.949 41.326 104.007 40.8648C104.065 40.3851 104.497 40.0198 105.049 40.0051C105.56 39.994 106.07 40.0051 106.577 40.0014C106.759 39.9977 106.867 40.042 106.842 40.2228C106.838 40.2449 106.842 40.267 106.842 40.2892C106.855 40.7983 106.855 40.7983 106.298 40.7983C105.95 40.7983 105.601 40.7983 105.252 40.7983C105.103 40.7983 104.949 40.8352 104.958 40.9754C104.962 41.0824 105.103 41.1378 105.248 41.1304C105.385 41.123 105.522 41.1378 105.659 41.1267C106.128 41.0861 106.548 41.1599 106.863 41.5031C106.896 41.54 106.942 41.551 106.996 41.5252C107 41.8646 107 42.1967 107 42.5288Z" fill="#F69419"/>
<path d="M37.9999 16.1339C38.0036 22.4375 36.3991 26.2407 33.3096 29.3496C30.2201 32.4585 26.3806 34.0148 21.9926 33.9999C17.4852 33.985 13.586 32.3652 10.4517 29.0883C7.49649 25.9981 5.97786 22.2696 6.00024 17.9925C6.02636 13.4206 7.70172 9.48682 11.045 6.34431C14.321 3.26524 18.265 1.83581 22.7538 2.01496C30.8619 2.33966 38.0372 9.05761 37.9999 16.1339ZM22.0672 2.65689C14.4703 2.60464 8.78752 8.70679 8.51887 15.5218C8.19425 23.714 14.7054 29.6034 21.8396 29.6631C29.5074 29.7303 35.4066 23.6542 35.526 16.3391C35.6454 8.6732 29.3358 2.59345 22.0672 2.65689Z" fill="white"/>
<path d="M50.7582 17.7613C51.2903 17.7613 51.8224 17.7461 52.3545 17.7664C52.6991 17.7765 52.8461 17.6243 52.9018 17.3045C53.2363 15.3655 53.5809 13.4264 53.9154 11.4874C53.9762 11.1473 54.1232 10.995 54.488 11.0001C55.4915 11.0204 56.4949 11.0052 57.4983 11.0103C58.0101 11.0154 58.0507 11.0813 57.9645 11.5686C57.3412 15.1675 56.7179 18.7613 56.0945 22.3601C55.8563 23.7306 55.6029 25.1011 55.3648 26.4767C55.2989 26.8473 55.1367 27.0097 54.7313 26.9996C53.7127 26.9742 52.6941 26.9792 51.6754 26.9945C51.3359 26.9996 51.1991 26.898 51.2649 26.5529C51.4677 25.4514 51.6602 24.3499 51.8579 23.2484C51.9542 22.7104 52.0504 22.1774 52.1467 21.6393C52.1974 21.3652 52.0859 21.2383 51.8123 21.2383C50.6568 21.2383 49.5014 21.2434 48.3459 21.2383C48.0976 21.2383 48.0013 21.3551 47.9658 21.5886C47.7631 22.7814 47.5554 23.9794 47.3425 25.1722C47.2513 25.6798 47.1499 26.1823 47.0688 26.6899C47.0334 26.9234 46.8965 26.9894 46.6938 26.9894C45.5688 26.9894 44.4438 26.9894 43.3187 26.9894C43.04 26.9894 42.964 26.8676 43.0146 26.5782C43.2934 25.0605 43.5468 23.5428 43.8103 22.0251C44.2867 19.2689 44.763 16.5126 45.2445 13.7564C45.3864 12.9493 45.5587 12.1524 45.6955 11.3453C45.7411 11.0966 45.8729 11.0103 46.0958 11.0103C47.2057 11.0103 48.3155 11.0103 49.4254 11.0103C49.7446 11.0103 49.7852 11.1575 49.7345 11.4519C49.4304 13.1219 49.1416 14.7919 48.8527 16.4619C48.8223 16.6243 48.8223 16.7918 48.7919 16.9593C48.6551 17.7664 48.6551 17.7664 49.476 17.7664C49.9068 17.7613 50.3325 17.7613 50.7582 17.7613Z" fill="white"/>
<path d="M114.993 16.0053C115.868 15.9805 116.708 16.0948 117.43 16.6517C117.603 16.7859 117.692 16.7511 117.727 16.5373C117.766 16.3036 117.939 16.2738 118.127 16.2738C118.958 16.2738 119.788 16.2788 120.619 16.2688C120.979 16.2639 121.034 16.4578 120.984 16.761C120.688 18.4415 120.406 20.1269 120.104 21.8023C119.763 23.7264 119.432 25.6554 119.047 27.5745C118.631 29.6676 117.514 31.3033 115.66 32.3623C114.593 32.9738 113.406 33.0981 112.185 32.934C111.508 32.8445 110.855 32.7202 110.247 32.3722C109.031 31.6861 108.636 29.9261 109.367 28.6484C109.748 27.9822 110.282 27.4502 110.915 27.0226C111.196 26.8337 111.256 26.7343 110.91 26.5603C110.055 26.1377 109.694 25.3869 109.629 24.4722C109.57 23.6667 109.664 22.8713 109.807 22.0758C109.941 21.3449 110.05 20.6091 110.203 19.8833C110.677 17.6311 112.477 15.891 114.993 16.0053ZM114.756 23.791C115.685 23.791 116.051 23.4977 116.214 22.6078C116.372 21.7477 116.491 20.8826 116.684 20.0274C116.787 19.57 116.565 19.3761 116.224 19.2568C115.146 18.874 114.034 19.5253 113.812 20.6688C113.703 21.2207 113.619 21.7775 113.525 22.3343C113.357 23.3237 113.752 23.791 114.756 23.791ZM113.624 29.7819C114.103 29.8018 114.454 29.588 114.711 29.2052C115.25 28.4048 115.364 27.4701 115.517 26.5454C115.581 26.1675 115.418 26.2421 115.215 26.3415C114.548 26.6746 113.93 27.0773 113.377 27.5745C113.08 27.843 112.853 28.181 112.759 28.5887C112.6 29.3146 113.095 29.8863 113.624 29.7819Z" fill="white"/>
<path d="M82.5723 15.8032C82.9713 15.7881 83.6077 15.8687 84.2013 16.2065C84.4198 16.3326 84.4293 16.1309 84.453 15.9847C84.5907 15.1679 84.7285 14.3562 84.8662 13.5394C85.0372 12.5009 85.2129 11.4673 85.3744 10.4287C85.4219 10.1111 85.5738 9.99512 85.8635 10.0002C86.7896 10.0102 87.7157 10.0102 88.6418 10.0002C88.9315 10.0002 89.0455 10.0808 88.9837 10.4237C88.7273 11.9059 88.4946 13.3882 88.2476 14.8705C87.8107 17.5073 87.3643 20.1391 86.9273 22.7759C86.7849 23.6531 87.0223 23.8951 87.8392 23.7086C88.1811 23.633 88.3093 23.7288 88.2856 24.1069C88.2524 24.6615 88.3141 25.2211 88.2144 25.7757C88.1669 26.058 88.0671 26.2345 87.8487 26.3908C86.7659 27.1622 85.0847 27.1672 84.0113 26.4211C83.7359 26.2295 83.6267 25.9471 83.5032 25.6648C83.4035 25.4379 83.318 25.4833 83.1945 25.6194C81.8885 27.0866 79.7988 27.4344 78.1556 26.4211C77.3483 25.9219 77.0538 25.0749 77.0063 24.1271C76.9541 23.0582 77.239 22.0347 77.3815 20.9962C77.4955 20.1744 77.638 19.3576 77.9561 18.5963C78.792 16.6048 80.3212 15.7981 82.5723 15.8032ZM81.9835 23.7036C82.8336 23.7036 83.204 23.4061 83.3655 22.5389C83.5317 21.6415 83.6837 20.7441 83.8309 19.8416C83.8689 19.6147 83.8404 19.3878 83.6314 19.2416C82.9 18.7223 81.6653 19.0601 81.2806 19.9071C80.9244 20.6886 80.8531 21.5558 80.7867 22.4028C80.7059 23.3758 81.0526 23.7036 81.9835 23.7036Z" fill="white"/>
<path d="M101.279 17.18C102.488 16.0245 103.941 15.8212 105.494 16.1287C106.643 16.3568 107.113 16.9817 107.183 18.2611C107.253 19.5357 106.873 20.7557 106.698 22.0004C106.653 22.3228 106.588 22.6451 106.523 22.9625C106.384 23.6519 106.733 23.999 107.417 23.8453C107.997 23.7164 108.012 23.7164 107.997 24.3115C107.982 24.857 107.937 25.4075 107.907 25.953C107.902 26.077 107.862 26.1811 107.772 26.2704C106.883 27.2126 104.196 27.2474 103.247 26.3448C102.662 25.7893 102.557 25.1 102.582 24.3561C102.622 23.0617 103.012 21.8169 103.177 20.5424C103.237 20.0862 103.317 19.6398 102.872 19.3423C102.498 19.0893 101.668 19.2332 101.264 19.5406C100.794 19.8977 100.824 20.4333 100.739 20.9094C100.41 22.6848 100.115 24.4702 99.8104 26.2505C99.7554 26.563 99.6355 26.7465 99.2559 26.7366C98.3119 26.7118 97.3679 26.7266 96.4239 26.7316C96.0892 26.7316 95.9444 26.6671 96.0193 26.2654C96.4838 23.761 96.9234 21.2516 97.3629 18.7422C97.4728 18.1173 97.5677 17.4875 97.6626 16.8577C97.7225 16.4758 97.8674 16.2576 98.3269 16.2824C99.0911 16.3221 99.8553 16.2923 100.62 16.2923C101.274 16.2923 101.274 16.2973 101.189 16.9321C101.174 17.0064 101.169 17.0858 101.279 17.18Z" fill="white"/>
<path d="M64.7582 16.0081C65.5641 15.9636 66.599 16.0922 67.5591 16.6264C68.4895 17.1507 69.0467 17.9174 68.9969 18.9908C68.9074 20.8654 68.6735 22.7302 67.9173 24.4762C67.3751 25.7326 66.2756 26.3607 65.0069 26.6773C63.2109 27.1225 61.4 27.1423 59.6438 26.5141C58.7384 26.1876 58.0668 25.5298 58.017 24.5356C57.9175 22.5521 58.2558 20.6033 59.0021 18.7682C59.6886 17.0864 61.1712 16.394 62.8925 16.1021C63.4249 16.0081 63.9572 16.023 64.7582 16.0081ZM63.9174 19.0452C63.3353 19.0402 62.7532 19.4063 62.4796 19.9256C62.012 20.8159 61.9622 21.8003 61.8627 22.7598C61.7831 23.5414 62.5194 24.036 63.3055 23.8777C64.1612 23.7046 64.599 23.1259 64.7781 22.3443C64.9224 21.7261 64.987 21.0929 65.1015 20.4697C65.2408 19.6882 64.7184 19.0501 63.9174 19.0452Z" fill="white"/>
<path d="M122.925 23.445C123.277 23.445 123.629 23.4499 123.981 23.445C124.348 23.4401 124.725 23.3958 124.901 23.8438C124.94 23.9374 125.067 23.9522 125.16 23.9916C125.786 24.2427 126.422 24.2033 127.058 24.0654C127.352 24.0014 127.518 23.8242 127.508 23.5041C127.499 23.1939 127.269 23.1299 127.029 23.0905C126.075 22.9428 125.121 22.8098 124.172 22.6473C121.775 22.2436 121.335 20.4512 122.069 18.4866C122.46 17.4476 123.336 16.8813 124.329 16.5367C126.153 15.8966 128.032 15.8522 129.901 16.2806C130.928 16.517 131.774 17.0389 131.97 18.2305C132.063 18.8017 131.936 19.3089 131.657 19.7963C131.569 19.9441 131.442 19.9835 131.29 19.9835C130.336 19.9835 129.382 19.9884 128.428 19.9835C128.286 19.9835 128.095 19.9982 128.125 19.7717C128.213 19.1365 127.792 19.0085 127.318 18.9002C126.789 18.7869 126.305 18.9051 125.84 19.1365C125.591 19.2596 125.483 19.4763 125.503 19.752C125.522 20.0425 125.713 20.1903 125.967 20.2789C126.662 20.5202 127.401 20.5546 128.115 20.6925C128.59 20.7811 129.064 20.8648 129.519 21.0273C131.305 21.6527 131.852 23.9571 130.576 25.3801C129.695 26.36 128.565 26.7293 127.323 26.8967C126.447 27.0149 125.566 27.0198 124.691 26.9706C123.742 26.9164 122.812 26.7539 121.985 26.1975C121.085 25.5919 120.953 24.5627 121.012 23.7404C121.032 23.4992 121.222 23.445 121.428 23.445C121.927 23.445 122.426 23.4499 122.925 23.445Z" fill="white"/>
<path d="M74.2165 10.0119C74.6827 10.0119 75.1489 10.0169 75.6151 10.0119C75.921 10.0068 76.0473 10.0824 75.9842 10.4653C75.2703 14.5311 74.5807 18.602 73.8862 22.6728C73.8668 22.7887 73.8619 22.9146 73.8619 23.0305C73.8522 23.6956 74.0853 23.8921 74.7167 23.7459C74.8429 23.7157 74.9692 23.6754 75.1003 23.6553C75.2703 23.625 75.3528 23.7006 75.314 23.887C75.2023 24.4261 75.28 24.9702 75.2606 25.5093C75.2509 25.9174 75.1149 26.2298 74.7555 26.4363C73.4443 27.1971 72.1039 27.1618 70.7976 26.4867C70.2051 26.1794 70.0691 25.5143 70.0157 24.8594C69.938 23.9021 70.1662 22.9751 70.3168 22.0481C70.6907 19.7356 71.1035 17.4331 71.5017 15.1206C71.7688 13.5688 72.0359 12.0171 72.303 10.4653C72.3613 10.1328 72.5216 9.98162 72.8664 10.0018C73.3132 10.032 73.7697 10.0119 74.2165 10.0119Z" fill="white"/>
<path d="M92.6002 26.9877C92.3464 26.9775 92.0927 26.9673 91.8344 26.9317C90.2483 26.6978 89.845 25.3856 90.0489 23.9463C90.3888 21.4999 90.7966 19.0688 91.1637 16.6326C91.2271 16.1953 91.3631 15.9766 91.8117 16.002C92.6228 16.0478 93.4431 16.0223 94.2587 16.0122C94.6213 16.0071 94.6983 16.1902 94.6349 16.5564C94.2905 18.6314 93.9597 20.7065 93.6243 22.7816C93.4884 23.6309 93.8101 23.9513 94.5759 23.7072C94.8796 23.6106 95.0563 23.6869 94.9838 24.048C94.875 24.5769 94.9067 25.1109 94.9249 25.6399C94.9385 26.0366 94.7844 26.2604 94.508 26.4435C93.9098 26.8147 93.2935 27.0589 92.6002 26.9877Z" fill="white"/>
<path d="M93.7999 14C92.3409 14 91.8561 13.3638 92.0357 11.9854C92.1434 11.1372 92.4397 10.4734 93.2746 10.1783C93.8582 9.97088 94.4597 9.934 95.0523 10.123C95.5236 10.2705 95.8603 10.561 95.9456 11.1142C96.0893 12.0039 95.9681 12.8152 95.3441 13.4837C94.8817 13.9723 94.2532 13.9447 93.7999 14Z" fill="white"/>
<path d="M70.0045 41.5206C70.0045 41.1201 70.0006 40.7195 70.0084 40.3226C70.0084 40.2432 69.9734 40.1385 70.0822 40.0916C70.1755 40.0519 70.2648 40.0736 70.3348 40.1457C70.4358 40.254 70.5135 40.2432 70.6534 40.171C71.0652 39.9545 71.4888 39.9509 71.8812 40.2215C71.9667 40.2829 72.0094 40.3045 72.1105 40.2324C72.5068 39.9401 72.9536 39.9364 73.3733 40.1494C73.7929 40.3623 74.0183 40.7087 73.9988 41.1814C73.9794 41.6902 73.9833 42.1991 73.9988 42.7043C74.0066 42.9352 73.9172 43.0002 73.6763 42.9966C73.0624 42.9785 73.1634 43.029 73.1557 42.5058C73.1518 42.0728 73.144 41.6397 73.1596 41.2103C73.1673 40.9649 73.0274 40.8133 72.806 40.8133C72.5884 40.8133 72.4446 40.9649 72.4524 41.2067C72.464 41.7047 72.4446 42.2027 72.4602 42.6971C72.4679 42.9208 72.3941 42.9966 72.1454 42.9966C71.617 42.993 71.617 43.0038 71.617 42.513C71.617 42.0908 71.617 41.6686 71.617 41.25C71.617 41.0154 71.5199 40.8206 71.2556 40.8242C70.9914 40.8278 70.9098 41.0154 70.9137 41.2572C70.9254 41.7444 70.9098 42.2315 70.9215 42.7151C70.9254 42.9208 70.8593 43.0182 70.6262 42.9966C70.5213 42.9857 70.4164 42.9857 70.3114 42.9966C70.0589 43.0218 69.9928 42.9064 70.0006 42.6898C70.0123 42.3001 70.0045 41.9104 70.0045 41.5206Z" fill="#F69419"/>
<path d="M74.0063 42.0119C74.0063 41.4602 74.0027 40.9119 74.0099 40.3602C74.0099 40.2753 73.9597 40.1586 74.0853 40.1126C74.1894 40.0737 74.2755 40.1267 74.3401 40.2046C74.4764 40.3779 74.5984 40.346 74.7743 40.2364C75.5279 39.7554 76.4322 40.056 76.7874 40.7103C77.1391 41.3647 77.1032 42.2949 76.3066 42.8042C75.9657 43.0235 75.5315 43.1438 75.1188 42.9315C74.8604 42.7971 74.8353 42.9032 74.8425 43.119C74.8496 43.3312 74.8389 43.5434 74.8461 43.7557C74.8496 43.9148 74.7886 43.9749 74.6236 43.9856C74.0099 44.0245 74.0099 44.028 74.0099 43.4126C74.0063 42.9457 74.0063 42.4788 74.0063 42.0119ZM74.8461 41.5026C74.8461 41.9553 75.065 42.1959 75.4812 42.1994C75.8867 42.2029 76.1917 41.9094 76.2025 41.5132C76.2097 41.1065 75.8975 40.7952 75.4776 40.7988C75.0649 40.8023 74.8461 41.0499 74.8461 41.5026Z" fill="#F69419"/>
<path d="M97.2004 39.0089C97.0989 39.7107 97.0043 40.3718 96.9098 41.0293C96.8748 41.2583 96.9553 41.3358 97.1794 41.3395C97.8518 41.3469 97.8518 41.3543 97.8518 40.6488C97.8518 40.3164 97.8588 39.984 97.8483 39.6516C97.8413 39.4632 97.9148 39.4078 98.0899 39.4041C98.6082 39.3856 98.6082 39.3782 98.6082 39.9212C98.6082 40.309 98.6047 40.6969 98.6117 41.0847C98.6117 41.1881 98.5837 41.3358 98.7448 41.3285C99.0109 41.31 99.0109 41.4984 98.9794 41.672C98.9444 41.8677 99.151 42.2038 98.7308 42.2038C98.6117 42.2038 98.6082 42.3036 98.6082 42.3922C98.6047 42.5141 98.6012 42.636 98.6082 42.7579C98.6187 42.9241 98.5592 43.009 98.3911 42.9943C98.3176 42.9869 98.244 42.9869 98.1705 42.9943C97.9323 43.0238 97.8343 42.9426 97.8448 42.6692C97.8588 42.1595 97.9218 42.2001 97.386 42.1965C96.9868 42.1928 96.5876 42.1928 96.1884 42.1965C96.0448 42.1965 95.9783 42.1928 96.0063 41.9822C96.1359 41.0958 96.2304 40.2019 96.3425 39.3118C96.367 39.1012 96.4545 38.9719 96.6892 39.0052C96.8432 39.0237 97.0008 39.0089 97.2004 39.0089Z" fill="#F69419"/>
<path d="M87.9888 41.5414C87.9888 41.9285 87.9924 42.3156 87.9852 42.7026C87.9852 42.7863 88.0321 42.9014 87.8877 42.9328C87.7758 42.9572 87.682 42.9014 87.6423 42.8177C87.5088 42.5527 87.3969 42.6538 87.202 42.7759C86.7725 43.0444 86.2781 43.0723 85.8233 42.8561C85.3469 42.6294 85.0474 42.2319 85.0077 41.7018C84.9463 40.9486 85.2531 40.4081 85.8991 40.1257C86.3719 39.9164 86.8447 39.9722 87.2597 40.2651C87.4258 40.3837 87.5232 40.3663 87.6387 40.2372C87.7145 40.157 87.8011 40.0838 87.9202 40.1326C88.0393 40.1815 87.9888 40.2965 87.9924 40.3802C87.9924 40.7673 87.9888 41.1544 87.9888 41.5414ZM87.1442 41.4996C87.1406 41.116 86.8483 40.8196 86.4766 40.8056C86.0363 40.7882 85.7945 41.1718 85.7981 41.4891C85.8017 41.8169 86.0363 42.204 86.4946 42.19C86.8808 42.1761 87.1442 41.9076 87.1442 41.4996Z" fill="#F69419"/>
<path d="M47.01 41.0053C47.01 40.437 47.0183 39.8687 47.0059 39.3004C47.0017 39.0859 47.0681 38.9965 47.3379 39.0001C47.9064 39.0037 47.9064 38.993 47.9064 39.4791C47.9064 39.5112 47.9064 39.5434 47.9064 39.5756C47.9105 39.7364 47.8483 39.9294 47.9313 40.051C48.0475 40.2225 48.255 40.0331 48.4251 40.0295C49.2301 40.0188 49.9522 40.5943 49.9895 41.3342C50.0144 41.806 49.9854 42.2778 49.9978 42.7497C50.002 42.957 49.8941 42.9999 49.6825 42.9963C48.865 42.982 49.0393 43.0642 49.0227 42.4494C49.0144 42.0741 49.0268 41.6988 49.0144 41.3235C49.0061 41.0482 48.7737 40.8302 48.4998 40.8231C48.1927 40.8123 47.9064 41.0411 47.9022 41.327C47.8939 41.7989 47.8898 42.2707 47.9022 42.7425C47.9064 42.9391 47.8275 43.0034 47.6034 42.9999C46.8731 42.9891 47.0142 43.032 47.0059 42.4851C47.0017 41.9883 47.01 41.495 47.01 41.0053Z" fill="#F69419"/>
<path d="M30 39.8336C30 39.7008 30 39.5681 30 39.4353C30 39.0001 30 39.0001 30.398 39.0001C30.8134 39.0001 30.8134 39.0001 30.8134 39.4464C30.8134 39.6898 30.8134 39.9332 30.8134 40.1766C30.8134 40.6117 31.0349 40.9068 31.381 40.9252C31.8448 40.951 32.1563 40.6892 32.1805 40.2245C32.1978 39.9037 32.1944 39.5828 32.184 39.2657C32.1771 39.0628 32.2498 38.9965 32.4367 39.0001C33.1185 39.0112 32.9905 38.9448 32.9905 39.5644C32.9905 39.8926 33.0078 40.2171 32.9455 40.5491C32.8382 41.1059 32.5232 41.46 32.0629 41.6775C31.914 41.7476 31.8621 41.8251 31.869 41.991C31.8794 42.2455 31.8656 42.4999 31.8725 42.7544C31.8794 42.9277 31.8102 42.9794 31.6544 42.9867C31.0591 43.0236 31.0591 43.0273 31.0591 42.3856C31.0591 42.2418 31.0487 42.098 31.0626 41.9541C31.0764 41.7992 31.0141 41.7144 30.8826 41.6554C30.2457 41.3604 29.9896 40.8146 30.0069 40.1028C30 40.0106 30 39.9221 30 39.8336Z" fill="#F69419"/>
<path d="M65.1259 42.9899C64.9025 42.9899 64.6791 42.9972 64.4557 42.9862C64.315 42.9788 64.1082 43.0562 64.0544 42.9089C63.9758 42.7027 63.9882 42.4707 64.0544 42.2571C64.0834 42.1651 64.2282 42.1945 64.3233 42.1945C64.8073 42.1909 65.2914 42.1945 65.7754 42.1909C65.9078 42.1909 66.0857 42.2056 66.0815 42.0325C66.0733 41.8632 65.8954 41.9405 65.7878 41.9294C65.4569 41.8963 65.1218 41.9736 64.7949 41.8742C64.2488 41.7122 63.9592 41.3293 64.0254 40.8175C64.0751 40.4087 64.5095 40.0332 65.0059 40.0111C65.5148 39.989 66.0236 40.0074 66.5325 40.0037C66.7021 40.0037 66.789 40.0553 66.7766 40.2136C66.7724 40.302 66.7683 40.3903 66.7807 40.4787C66.8138 40.718 66.7228 40.8211 66.4332 40.8027C66.0857 40.7843 65.7382 40.7954 65.3907 40.799C65.2914 40.799 65.1879 40.7954 65.0969 40.8248C65.0266 40.8469 64.919 40.8727 64.9314 40.9758C64.9439 41.0826 65.0266 41.1231 65.1383 41.1231C65.3989 41.1267 65.6596 41.1231 65.9202 41.1267C66.5987 41.1341 66.9958 41.4545 67 42.0031C67.0041 42.5664 66.5573 42.9678 65.9078 42.9788C65.6472 42.9936 65.3865 42.9899 65.1259 42.9899Z" fill="#F69419"/>
<path d="M53 41.479C52.9891 42.4272 52.3184 43.0172 51.5018 42.9996C50.5687 42.9785 50 42.3605 50 41.5492C49.9964 40.6011 50.5614 40.0251 51.4982 40.0005C52.3329 39.9795 52.9927 40.5695 53 41.479ZM51.4909 42.1954C51.9247 42.227 52.1689 41.8864 52.2053 41.4931C52.2382 41.1208 51.8773 40.8012 51.48 40.8047C51.0681 40.8083 50.8384 41.0471 50.8384 41.4685C50.8348 41.9391 51.0681 42.1954 51.4909 42.1954Z" fill="#F69419"/>
<path d="M58.0013 41.4946C57.9645 40.582 58.7119 40.0555 59.6226 40.0029C60.125 39.9748 60.5906 40.1538 60.9295 40.5118C61.0398 40.6311 61.0112 40.7084 60.9091 40.8101C60.5415 41.1822 60.1781 41.5613 59.8146 41.9368C59.7452 42.007 59.6267 42.0877 59.7043 42.1685C59.7656 42.2316 59.9085 42.2106 60.0106 42.1509C60.0801 42.1088 60.174 42.0842 60.2148 42.0281C60.3904 41.7824 60.5415 41.835 60.7212 42.0281C60.8887 42.2071 61.1746 42.3299 60.8152 42.6002C60.3333 42.9652 59.6471 43.1126 59.0754 42.9055C58.3566 42.6493 58.0013 42.1825 58.0013 41.4946ZM59.7697 40.8593C59.2551 40.768 58.765 41.1997 58.8875 41.5999C58.9202 41.7016 58.9815 41.7683 59.0795 41.6595C59.3163 41.4033 59.5369 41.133 59.7697 40.8593Z" fill="#F69419"/>
<path d="M77.0004 41.5142C76.9822 40.6091 77.6695 40.029 78.4915 40.001C79.3134 39.9696 80.0517 40.679 79.9972 41.5037C79.9353 42.4158 79.4553 42.9644 78.4878 42.9994C77.6623 43.0238 76.9822 42.3529 77.0004 41.5142ZM79.1607 41.5107C79.1607 41.0494 78.9315 40.8222 78.4988 40.8083C78.0369 40.7908 77.7896 41.1892 77.8005 41.5107C77.8078 41.8426 78.0478 42.2236 78.5133 42.1991C78.9315 42.1746 79.1607 41.951 79.1607 41.5107Z" fill="#F69419"/>
<path d="M34.0069 41.4876C33.937 40.6105 34.6871 39.9965 35.4997 40C36.3564 40 37.0109 40.6596 36.9999 41.5262C36.9888 42.3401 36.3233 43.0172 35.4739 42.9997C34.6319 42.9821 33.9223 42.3401 34.0069 41.4876ZM35.4997 42.1927C35.8858 42.1927 36.1946 41.891 36.1909 41.5226C36.1873 41.0946 35.8931 40.8034 35.4703 40.8034C35.1026 40.8034 34.8121 41.0981 34.7974 41.4595C34.7827 41.8033 35.1357 42.2805 35.4997 42.1927Z" fill="#F69419"/>
<path d="M89.0046 41.5059C89.0046 41.1045 89.0004 40.7068 89.0087 40.3054C89.0087 40.2258 88.9632 40.121 89.0916 40.0812C89.191 40.0487 89.2945 40.0704 89.3566 40.1499C89.485 40.3162 89.6175 40.2837 89.7832 40.1897C90.7358 39.6401 92.0942 40.3633 91.9948 41.354C91.9493 41.806 91.9783 42.2616 91.9907 42.7172C91.999 42.9269 91.9203 42.9992 91.6759 42.9992C91.092 43.0028 91.092 43.0137 91.092 42.4966C91.092 42.117 91.0837 41.7373 91.092 41.3612C91.1002 41.0467 90.889 40.8695 90.5743 40.8261C90.2802 40.7863 90.069 40.9309 89.9779 41.1913C89.8163 41.6577 89.9365 42.135 89.895 42.6051C89.8826 42.7317 89.9862 42.9305 89.7832 42.9703C89.5596 43.0137 89.3152 42.9956 89.0833 42.9667C88.9715 42.9522 89.0046 42.8221 89.0046 42.7389C89.0046 42.3303 89.0046 41.9181 89.0046 41.5059Z" fill="#F69419"/>
<path d="M103.995 41.4887C103.995 41.8912 103.999 42.2936 103.99 42.6961C103.99 42.7831 104.049 42.9064 103.878 42.9354C103.754 42.9572 103.666 42.9137 103.612 42.8085C103.525 42.6381 103.43 42.649 103.251 42.7614C102.782 43.0623 102.267 43.0696 101.756 42.8339C101.249 42.5982 101.013 42.2175 101.004 41.7208C101 41.2313 101.008 40.7418 101 40.2523C100.996 40.0673 101.075 40.013 101.283 40.0057C101.897 39.9876 101.897 39.9803 101.897 40.5133C101.897 40.8614 101.893 41.2095 101.897 41.5576C101.901 41.9419 102.097 42.1522 102.445 42.1595C102.848 42.1667 103.081 41.9564 103.093 41.5576C103.102 41.1334 103.118 40.7091 103.089 40.2849C103.068 39.9586 103.305 40.0021 103.525 40.0093C103.741 40.0166 104.019 39.9223 103.999 40.2813C103.974 40.6801 103.995 41.0862 103.995 41.4887Z" fill="#F69419"/>
<path d="M39.9933 41.4803C39.9933 41.8848 39.9975 42.2893 39.9892 42.6902C39.9892 42.7777 40.0432 42.8979 39.8978 42.9453C39.7648 42.9854 39.7067 42.9052 39.6402 42.8177C39.5405 42.6938 39.4283 42.6683 39.2663 42.7704C38.2983 43.3753 36.9398 42.7157 37.0021 41.6006C37.027 41.1633 37.0145 40.726 37.0021 40.2923C36.9979 40.0882 37.0602 40.0044 37.3137 40.0008C37.9036 39.9971 37.9036 39.9862 37.9036 40.5C37.9036 40.8608 37.8953 41.2216 37.9078 41.5787C37.9202 41.9686 38.1279 42.1654 38.4811 42.1654C38.8633 42.1618 39.0918 41.9504 39.1001 41.5714C39.1084 41.1451 39.1167 40.7187 39.0959 40.296C39.0876 40.0627 39.1832 39.9935 39.4408 40.0008C40.1013 40.0154 39.9892 39.968 39.9975 40.4964C39.9975 40.8244 39.9933 41.1523 39.9933 41.4803Z" fill="#F69419"/>
<path d="M84.6144 42.9891C83.776 42.9891 83.3066 42.4718 83.3034 41.5754C83.3034 41.4053 83.3034 41.2353 83.3001 41.0652C83.3001 40.9908 83.3034 40.8987 83.2095 40.8951C82.9052 40.8845 83.025 40.6329 83.0153 40.4735C83.0056 40.3211 82.9473 40.1121 83.2063 40.1121C83.2969 40.1121 83.2969 40.0164 83.2969 39.942C83.3001 39.8039 83.3001 39.6657 83.3001 39.5275C83.3001 39.0315 83.4199 38.9358 83.8699 39.035C83.9896 39.0634 83.9929 39.1413 83.9993 39.2405C84.0252 39.5204 83.8861 39.8818 84.0641 40.0661C84.2259 40.2326 84.5464 40.1086 84.7957 40.1192C84.9284 40.1227 84.9964 40.1688 84.9899 40.3211C84.9834 40.4381 84.9834 40.555 84.9899 40.6719C85.0028 40.8455 84.9219 40.8916 84.7795 40.888C84.6144 40.8809 84.4493 40.9022 84.2842 40.8845C84.0447 40.8561 83.9734 40.9731 83.9961 41.214C84.0058 41.3203 83.9961 41.4266 83.9993 41.5329C84.0026 42.0076 84.1936 42.2131 84.637 42.2308C84.7503 42.2379 84.9284 42.1494 84.9672 42.323C85.0093 42.5143 85.0158 42.7375 84.9575 42.9182C84.9154 43.0705 84.718 42.9572 84.6144 42.9891Z" fill="#F69419"/>
<path d="M93.6393 42.9929C92.8099 42.9929 92.3129 42.4443 92.3064 41.5432C92.3064 41.3829 92.3064 41.2226 92.3032 41.0623C92.3032 41.0018 92.3097 40.9092 92.2451 40.8985C91.8191 40.8237 92.0934 40.4604 92.0224 40.2431C92.016 40.2182 92.0321 40.1612 92.045 40.1576C92.5001 40.0543 92.2387 39.6554 92.3032 39.3918C92.3323 39.2743 92.2451 39.0926 92.3742 39.0463C92.5549 38.9822 92.7615 38.9858 92.9454 39.0499C93.0358 39.082 92.9939 39.2209 93.0003 39.3135C93.0229 39.5664 92.9003 39.8869 93.0584 40.0508C93.2133 40.2146 93.5038 40.1185 93.7297 40.1006C94.0363 40.0793 93.9879 40.293 93.9879 40.4925C93.9879 40.6884 94.0363 40.927 93.7297 40.8771C93.6716 40.8664 93.6135 40.8771 93.5554 40.8771C92.9616 40.8843 93.0068 40.8095 93.0003 41.2226C92.9906 41.9742 93.1423 42.2057 93.6393 42.2271C93.7523 42.2306 93.9298 42.1452 93.9685 42.3197C94.0104 42.512 94.0137 42.7329 93.9588 42.9181C93.9201 43.0641 93.7361 42.9644 93.6393 42.9929Z" fill="#F69419"/>
<path d="M55.0032 41.5347C54.9582 40.7851 55.5806 40.081 56.6002 40.004C56.9933 39.9759 57.3701 40.0985 57.6854 40.3052C58.1358 40.5995 58.0375 41.0233 57.4929 41.2054C57.3209 41.265 57.3168 41.1144 57.2636 41.0618C57.0343 40.8482 56.7681 40.7501 56.4446 40.8341C56.1211 40.9182 55.9655 41.1564 55.9 41.4156C55.8304 41.7064 55.9737 41.9445 56.2644 42.1127C56.5552 42.2808 57.0466 42.2283 57.2718 41.9621C57.4151 41.7974 57.4847 41.843 57.6035 41.948C57.6362 41.9796 57.6731 42.0076 57.7099 42.0356C58.1194 42.3579 58.103 42.4945 57.6117 42.7502C57.0138 43.0584 56.4037 43.097 55.7935 42.7782C55.2489 42.5015 54.9663 42.0882 55.0032 41.5347Z" fill="#F69419"/>
<path d="M45.6422 42.192C45.8978 42.2201 46.0722 42.1113 46.2222 41.9674C46.3358 41.8586 46.4169 41.8305 46.567 41.9534C47.1267 42.4096 47.1024 42.5114 46.4048 42.8414C45.3948 43.3187 44.1131 42.6483 44.0117 41.7673C43.9063 40.8231 44.5187 40.0896 45.5895 40.0053C46.1087 39.9632 46.5751 40.1738 46.928 40.5248C47.0172 40.6161 47.0415 40.7284 46.8955 40.8232C46.8104 40.8793 46.7292 40.9495 46.6643 41.0232C46.494 41.2128 46.3723 41.2794 46.1736 41.0127C45.987 40.7635 45.5814 40.7389 45.2934 40.8898C44.9852 41.0548 44.8026 41.4585 44.9284 41.7392C45.0582 42.0165 45.2447 42.2412 45.6422 42.192Z" fill="#F69419"/>
<path d="M81.0037 41.489C81.0037 41.068 81 40.6471 81.0074 40.2261C81.0074 40.1486 80.9706 40.0378 81.1031 40.012C81.1988 39.9935 81.2835 40.023 81.3276 40.1154C81.4123 40.2926 81.5117 40.2815 81.67 40.1892C82.0161 39.9861 82.4026 39.9935 82.7892 40.0046C82.9511 40.0083 83.0027 40.0821 82.9916 40.2298C82.988 40.3074 82.9806 40.3849 82.9916 40.4625C83.0358 40.7505 82.9033 40.8428 82.6345 40.8022C82.0823 40.7209 81.7363 41.0569 81.7915 41.6441C81.8246 41.9948 81.7878 42.353 81.7989 42.7075C81.8062 42.918 81.7436 42.9992 81.5191 42.9992C81 43.0029 81 43.014 81 42.486C81 42.1536 81 41.8213 81.0037 41.489Z" fill="#F69419"/>
<path d="M40.0016 41.4943C40.0016 41.0738 39.9979 40.657 40.0053 40.2365C40.0053 40.1591 39.9683 40.0484 40.0904 40.0152C40.1903 39.9894 40.2495 40.041 40.3013 40.1259C40.3974 40.2882 40.5232 40.255 40.6638 40.1738C41.0264 39.9673 41.426 40.0005 41.8219 40.0041C41.9476 40.0041 41.9994 40.0668 41.9994 40.1886C41.9957 40.3214 41.9957 40.4541 41.9994 40.5869C42.0068 40.7418 41.9402 40.8082 41.7849 40.8009C41.6517 40.7935 41.5185 40.7935 41.3853 40.8045C41.0301 40.8267 40.8044 41.0627 40.8007 41.4168C40.797 41.8484 40.7896 42.2763 40.8044 42.7078C40.8118 42.9181 40.7489 42.9992 40.5232 42.9992C40.0016 43.0029 40.0016 43.014 40.0016 42.4902C40.0016 42.1582 40.0016 41.8263 40.0016 41.4943Z" fill="#F69419"/>
<path d="M54.9951 41.5C54.9951 41.8989 54.9825 42.2978 54.9993 42.693C55.0077 42.9183 54.9403 43.007 54.6663 42.9996C53.8779 42.9774 54.017 43.0624 54.0086 42.4492C54.0002 41.7401 54.017 41.0346 54.0002 40.3254C53.996 40.0854 54.0676 39.993 54.3585 40.0004C55.1174 40.0226 54.9782 39.9376 54.9909 40.5397C54.9993 40.8573 54.9951 41.1787 54.9951 41.5Z" fill="#F69419"/>
<path d="M62.0048 41.5062C62.0048 41.0952 62.014 40.6879 62.0002 40.277C61.9956 40.0844 62.0601 39.9808 62.3227 40.003C62.461 40.0141 62.5992 40.0104 62.7374 40.003C62.9355 39.9956 63 40.0696 63 40.2214C62.9954 41.073 62.9954 41.9246 63 42.7762C63 42.9539 62.8986 43.0095 62.7005 42.9983C62.5623 42.9909 62.4241 42.9909 62.2859 42.9983C62.0647 43.0132 62.0002 42.928 62.0002 42.7614C62.0094 42.3467 62.0048 41.9246 62.0048 41.5062Z" fill="#F69419"/>
<path d="M68.014 41.4901C68.014 41.125 68.0414 40.7599 68.0049 40.3985C67.9683 40.063 68.1373 39.9634 68.5161 40.0113C68.5983 40.0224 68.6805 40.0187 68.7626 40.015C68.9407 40.0076 69 40.0814 69 40.2142C68.9954 41.0734 68.9954 41.9327 69 42.7919C69 42.9542 68.9087 43.0058 68.7261 42.9984C68.5892 42.9947 68.4522 42.991 68.3153 42.9984C68.0779 43.0132 68.0094 42.9247 68.014 42.7476C68.0231 42.3272 68.014 41.9105 68.014 41.4901Z" fill="#F69419"/>
<path d="M62.4774 38.0001C62.7909 38.0036 63 38.2043 63 38.509C63 38.7527 62.7352 39.0035 62.4774 39C62.1916 38.9964 62 38.7921 62 38.4839C62 38.1434 62.1429 37.9965 62.4774 38.0001Z" fill="#F69419"/>
<path d="M68.4845 38.0002C68.7806 38.0037 69 38.2066 69 38.477C69 38.7438 68.7457 39 68.4776 39C68.185 39 67.99 38.7794 68.0004 38.4592C68.0108 38.1888 68.2129 37.9931 68.4845 38.0002Z" fill="#F69419"/>
<path d="M54.9999 38.5091C55.0036 38.8208 54.8195 39.0035 54.509 38.9999C54.213 38.9964 54.0037 38.7921 54.0001 38.4983C53.9964 38.1902 54.1841 38.0038 54.5018 38.0002C54.8556 37.9931 54.9999 38.14 54.9999 38.5091Z" fill="#F69419"/>
<path d="M17.5545 12.01C18.1378 12.0557 18.8503 11.9376 19.5593 12.0824C20.4221 12.254 21.0997 12.8564 20.9879 14.0077C20.9111 14.816 20.8447 15.6356 20.4745 16.3753C20.3103 16.7031 20.1042 16.9929 19.8248 17.1949C19.6502 17.3208 19.6222 17.4351 19.6816 17.641C19.968 18.617 20.2404 19.5968 20.5234 20.5766C20.6351 20.9617 20.6212 20.9922 20.2544 20.9922C19.6991 20.996 19.1437 20.9845 18.5918 20.996C18.3648 20.9998 18.2495 20.9045 18.1832 20.6757C17.9317 19.7722 17.6627 18.8762 17.4182 17.9689C17.3484 17.7096 17.2331 17.6296 16.9991 17.6296C16.7616 17.6258 16.6603 17.7249 16.6289 17.9727C16.5206 18.8038 16.3983 19.6349 16.2831 20.4698C16.2097 20.996 16.2132 20.996 15.7172 20.996C15.2457 20.996 14.7742 20.9883 14.3026 20.9998C14.0721 21.0036 13.9603 20.9617 14.0127 20.6528C14.2852 19.0402 14.5367 17.4275 14.7986 15.811C14.9768 14.7016 15.1689 13.596 15.333 12.4827C15.3854 12.1206 15.5181 11.9795 15.8639 12.0024C16.3809 12.0367 16.9083 12.01 17.5545 12.01ZM17.6523 16.0626C18.0574 16.1275 18.4451 15.9711 18.6652 15.445C18.9306 14.816 18.6547 14.084 18.1098 14.0115C17.8723 13.981 17.6313 14.0039 17.3903 14.0039C17.2296 14.0039 17.1772 14.0992 17.1598 14.2594C17.1179 14.6215 17.0655 14.9799 17.0166 15.3383C16.8943 16.177 16.8559 16.0398 17.6523 16.0626Z" fill="#F69419"/>
<path d="M26.176 12.0038C27.3266 12.0038 28.4771 12.0038 29.6241 12.0038C30.0252 12.0038 30.0358 12.0191 29.9689 12.4504C29.9091 12.855 29.8211 13.2557 29.7824 13.6641C29.7578 13.9198 29.6523 13.9923 29.4376 13.9923C28.7304 13.9885 28.0232 14 27.316 13.9885C27.0275 13.9847 26.8938 14.0649 26.841 14.4122C26.5208 16.5 26.1725 18.5839 25.8347 20.6717C25.8031 20.874 25.7222 21.0037 25.504 20.9999C24.9974 20.9885 24.4907 20.9923 23.984 20.9999C23.7061 21.0037 23.6674 20.8396 23.7026 20.5992C23.8539 19.6564 24.0122 18.7137 24.1635 17.7709C24.35 16.6259 24.5224 15.4809 24.7194 14.3397C24.7687 14.0572 24.6842 13.9885 24.4555 13.9923C23.7589 13.9962 23.0622 13.9962 22.3656 13.9923C21.975 13.9885 21.9645 13.9694 22.0313 13.5649C22.0946 13.1603 22.172 12.7595 22.2213 12.355C22.253 12.0763 22.3867 12 22.6259 12C23.8116 12.0076 24.9938 12.0038 26.176 12.0038Z" fill="#F69419"/>
</svg>
